PathFileType	4	(X/Y/Z)	27_1_20_p0_0-213.trc
DataRate	CameraRate	NumFrames	NumMarkers	Units	OrigDataRate	OrigDataStartFrame	OrigNumFrames
60.0	60.0	6	27	m	60.0	160	214
Frame#	Time	RHip			RKnee			RAnkle			RBigToe			RSmallToe			RHeel			LHip			LKnee			LAnkle			LBigToe			LSmallToe			LHeel			Neck			Head			Nose			RShoulder			RElbow			RWrist			RThumb			RIndex			RPinky			LShoulder			LElbow			LWrist			LThumb			LIndex			LPinky			
		X1	Y1	Z1	X2	Y2	Z2	X3	Y3	Z3	X4	Y4	Z4	X5	Y5	Z5	X6	Y6	Z6	X7	Y7	Z7	X8	Y8	Z8	X9	Y9	Z9	X10	Y10	Z10	X11	Y11	Z11	X12	Y12	Z12	X13	Y13	Z13	X14	Y14	Z14	X15	Y15	Z15	X16	Y16	Z16	X17	Y17	Z17	X18	Y18	Z18	X19	Y19	Z19	X20	Y20	Z20	X21	Y21	Z21	X22	Y22	Z22	X23	Y23	Z23	X24	Y24	Z24	X25	Y25	Z25	X26	Y26	Z26	X27	Y27	Z27	
160	2.6666666666666665	0.1350730005912771	0.5406518930867278	0.8392839717612538	0.1736534818011256	0.7377323911620252	1.362984150897514	0.18947964873184786	0.8101789146783073	1.8174843267564043	0.1321417503207705	0.5900586041229576	1.8426312595364531	0.19951603816963903	0.5987516972085181	1.8321697772430323	0.16721148744236783	0.9057732835948783	1.889617090555465	-0.08373985980055457	0.5850810522539619	0.85302814228483	-0.05813796912129914	0.7295229839880564	1.359267472118074	-0.04644692795855121	0.793135683718916	1.8193316951870802	-0.043728544659719884	0.5658016546203881	1.82280315876964	-0.10366963017733406	0.6323782055746617	1.840070684811304	-0.026899699626931953	0.8715953771540362	1.8828656905839534	0.0032294224911075795	0.5424851906525562	0.2839030221526601	0.014868057613687603	0.4951028742803342	0.054987980370995934	-0.016306466602411432	0.42612161997183706	0.18998403860704413	0.1425140731876608	0.5360050345445334	0.3262661665853244	0.30793385996707073	0.45509504706428616	0.13000671387806417	0.3637092478591477	0.31272775902379146	-0.09660111913826645	0.29348078411685874	0.21557963634628385	-0.18726366408868955	0.3178288262222581	0.27357668549133385	-0.2448513949370369	0.42429377978773125	0.35960500234355275	-0.25574701452731075	-0.1459137289548911	0.577451557374688	0.3351773788014634	-0.301422928119129	0.45528421292591986	0.14769805881465276	-0.341934283459942	0.36375012334356366	-0.06525702430905257	-0.286557524003672	0.2965041804497687	-0.17153262081073764	-0.29539813189962205	0.29941238856206337	-0.20889363384148793	-0.37149015577282696	0.32059910696479066	-0.19609617600878101
161	2.683333333333333	0.13520075935966117	0.5409068052342079	0.8391547571173301	0.16910485688356297	0.7368076110232714	1.3625977724607197	0.18949952755942787	0.810380187812285	1.81747333622519	0.13201000706281535	0.5902427294085031	1.8430022299943152	0.19944580166683856	0.5994312702392518	1.8324936832846368	0.16726034169413848	0.9068625291435392	1.890062088515228	-0.0837258518579468	0.5851971282713507	0.852912787848332	-0.058108053463646774	0.729676871985997	1.3592278937753803	-0.04647808217719985	0.792977096054241	1.8193062608120174	-0.04380613993398798	0.5659524051936002	1.8230520496150113	-0.10457274452302172	0.6330028280904598	1.8442512536898756	-0.026912490033875035	0.8717329579956729	1.8828796420019411	0.007415922666868864	0.5537713123097372	0.2835424084998274	0.014925274079135459	0.49440567772217353	0.057699571101097705	-0.016212400576202223	0.42597173031395036	0.18997806261035433	0.14658440154291064	0.5364960969901614	0.326186754554519	0.3158394948432088	0.4516608548281471	0.14313545695061983	0.363668578610253	0.3084971865686294	-0.09296029306489918	0.29110509144344626	0.22051481168114645	-0.19238215325771707	0.31477319815056826	0.2735534741133966	-0.24147792338755267	0.42518230036295085	0.3578869173310744	-0.2537996199438731	-0.14618447779800828	0.5772308951446786	0.33514021876813216	-0.3086700186024051	0.44264475080936133	0.15896688800897937	-0.34165157330542817	0.3646865703132088	-0.0551038397853449	-0.28451747526296267	0.29892235123728506	-0.15820097809742362	-0.2878978067856612	0.29336132891152983	-0.19952418807896158	-0.3677675011018738	0.3310060792741798	-0.19543020540606157
162	2.7	0.13518513314254665	0.540959319911196	0.8391524351943054	0.1736175389195755	0.7376149098922566	1.362882614212636	0.19685096061485935	0.7936330020445082	1.80905211860273	0.12658136972311432	0.5767164808648426	1.8361910424090997	0.20152963011722258	0.5841124407372997	1.8245225966017113	0.17155175995177582	0.9078811365706635	1.886610319792508	-0.08366986696734957	0.5851048795193426	0.8528854240842697	-0.0580969936890784	0.7296175181459297	1.3592057529438397	-0.046854728462105186	0.7940272670312061	1.8153191223382785	-0.043583487163766844	0.566111646599239	1.823004641639207	-0.10014106087694996	0.6332036900751135	1.8442963592760948	-0.02785608707287584	0.8526195017364865	1.8734319837477897	0.003368377164288826	0.542550306679793	0.28372649403010963	0.018773634752832863	0.5051299690486871	0.056010035846299364	-0.016118151038199868	0.42599737448504005	0.18991181155618506	0.14671545308881467	0.5367963869407442	0.32639816568503927	0.3287331332561012	0.44766345404137636	0.13776047127441363	0.366281920033579	0.24199729506763365	-0.10409779039967837	0.2887293987700338	0.22544998701600907	-0.19750064242674456	0.3194065877195657	0.2919109419170086	-0.23632015589591426	0.4261997614918638	0.35850870466641654	-0.2507559489238308	-0.1464058401877798	0.5774586153460488	0.3385561478685844	-0.3191704945849547	0.4284691647270276	0.16983938281070848	-0.341052102034443	0.3647679282512295	-0.03899376920257082	-0.27869950172315555	0.30699791131441495	-0.1512647257553817	-0.28785178596706806	0.29228206519474	-0.18410561116893912	-0.36384283217406854	0.3232695353011862	-0.18012392008160105
163	2.716666666666667	0.1352973277598892	0.5409777178222653	0.8392729344372656	0.17370403641182824	0.7375065775859883	1.3627637553595726	0.19425143451816368	0.8102722876662815	1.8173682377639042	0.1319770079191689	0.5903031550638536	1.8428735045256228	0.19937394828565255	0.5987035895765798	1.8322093487059143	0.17027012558258164	0.9084176751072905	1.892187198478894	-0.08361017159739834	0.5852466889923977	0.8532250422680816	-0.05809478940748349	0.7296419278755498	1.3592863096807217	-0.04683606604304374	0.7940063344293193	1.8153052624322306	-0.04233780475437596	0.5681244440554488	1.8286895776961611	-0.10011907771863358	0.6332880068097299	1.8443886149674076	-0.02782232431890374	0.8524200966921299	1.8732963494255421	0.003408387542849396	0.5422962310711577	0.28383303793634596	0.02144603868075159	0.49380139846825966	0.056601410484199165	-0.012079941120418623	0.427253144650236	0.18966573108257623	0.1513302415855752	0.5390188426894942	0.3335004409430818	0.3348297262689277	0.4078117766950891	0.1473689021191444	0.3626244066044568	0.28997491907962236	-0.08507142500296676	0.27518947455424214	0.25365038003021145	-0.1983832068373352	0.3193520803960422	0.2925959055697351	-0.23327927159396813	0.42922025031021277	0.3426214210525616	-0.22972818584222	-0.14639953059054694	0.5792807689848929	0.3455000492386778	-0.33417083734132724	0.44934088608353484	0.19301878818024545	-0.3428041895427401	0.3574963868750099	-0.011045418432876887	-0.27410109318993625	0.29853687557650066	-0.14267583399937034	-0.28294009502938	0.30277069447351496	-0.1573498172160462	-0.36199509788674583	0.31587688567265937	-0.16010923193891458
164	2.7333333333333334	0.13559178269123617	0.5405086125384856	0.8428706111410665	0.16866933095002315	0.7242844483913808	1.358397154895742	0.19430163355304944	0.8106695118419708	1.8173735666908621	0.13205685156097616	0.5888357086822235	1.8465673577624788	0.19917563675886035	0.5986120026443006	1.8323989632495785	0.17123572405540427	0.9082858577540093	1.8869076723165261	-0.08358267470797143	0.5850956107609396	0.8529842685829017	-0.057968557009810864	0.7295227246510778	1.3591300521445653	-0.046495229723926376	0.7925657987040835	1.8190691119167655	-0.0436243022695473	0.5662491601907205	1.8232790048103793	-0.09925496902767914	0.6326399467706676	1.840362920332802	-0.02800186364486865	0.8518129298710321	1.8733924513537366	0.007550640494765134	0.5533620591138736	0.2837783132928199	0.021427994911680737	0.49276071312197145	0.05587236372581629	-0.011968830456517055	0.4270619386456586	0.18970158567603365	0.15207826258928345	0.5394430887528291	0.3369648158468572	0.34297975104791534	0.41926629073917077	0.16371937007014567	0.36057017298124344	0.28131780670692946	-0.05183489659591301	0.282399704295731	0.24099256509365855	-0.17105661776377723	0.314796120456434	0.2910340731409622	-0.21899328834932494	0.4300458992850584	0.3361196004118157	-0.19210901714696557	-0.14663174470934673	0.5787843764064463	0.3456176922998729	-0.3486990279182202	0.45974493684244183	0.20069140462438587	-0.3476751095255214	0.33562899995833845	-0.006785651006119227	-0.2733576140307128	0.29947119143583373	-0.10588923568637408	-0.28248387867628594	0.3024739429458509	-0.14831157165664985	-0.3473325960825812	0.3658656641806949	-0.1521020085456376
165	2.75	0.1403599446078532	0.5522421713226339	0.8449540923176436	0.16925990919255418	0.7236937122691715	1.3539551648148942	0.1943695140646049	0.8103923783296515	1.817373381381576	0.12675205018826133	0.5745434631548211	1.8392641625678534	0.19921802940806946	0.5976884691942186	1.831970662667078	0.1706460186287612	0.9079623033079945	1.8916551208630057	-0.07535111915949261	0.5989121333525452	0.8553709364877506	-0.05804515058946972	0.7294393494783017	1.3592832892568578	-0.04640010068708815	0.792748820774884	1.819098210792396	-0.0424376110673093	0.5679685450746152	1.8287324305949326	-0.0992532952540064	0.63260360932556	1.8402793828218953	-0.02783367089941449	0.8519481842844553	1.8732574531468016	0.003333499982990483	0.5416500079142889	0.28418179099201846	0.02146681344672942	0.4932651801134687	0.05606303636887414	-0.011894302205685508	0.42704671650580495	0.18971591249324368	0.15204366184524004	0.5394728267549636	0.33718566062780453	0.35071780560153726	0.40806124049659354	0.19674081255593343	0.3557892325095445	0.28631741525009746	-0.02618340692834257	0.2829062296484785	0.24243366629091845	-0.1550277452284106	0.30886657018416924	0.2663498526483456	-0.19168791829786586	0.43184873817477387	0.2594806709380024	-0.1859398507895938	-0.1506646483548174	0.5669838694239261	0.3457266633331524	-0.35907922441458884	0.4612875054067955	0.22143124127729838	-0.346441282667859	0.31550174346535936	0.002281851192595651	-0.2583109279657456	0.30512744794335134	-0.08493170632904408	-0.27160783476716305	0.3086259157184273	-0.12257618241812776	-0.34683956194892895	0.3664985438963132	-0.13948769778561765
